<?xml version="1.0" standalone="no"?>
<!DOCTYPE svg PUBLIC "-//W3C//DTD SVG 20010904//EN"
 "http://www.w3.org/TR/2001/REC-SVG-20010904/DTD/svg10.dtd">
<svg version="1.0" xmlns="http://www.w3.org/2000/svg"
 width="401.000000pt" height="401.000000pt" viewBox="0 0 401.000000 401.000000"
 preserveAspectRatio="xMidYMid meet">
<metadata>
Created by potrace 1.14, written by Peter Selinger 2001-2017
</metadata>
<g transform="translate(0.000000,401.000000) scale(0.100000,-0.100000)"
fill="#000000" stroke="none">
<path d="M3265 3710 c-4 -6 -32 -9 -66 -7 -38 2 -59 0 -59 -7 0 -7 -3 -7 -8
-1 -8 12 -52 15 -52 4 0 -5 -7 -5 -17 -2 -9 4 -14 2 -10 -3 3 -5 -2 -10 -11
-11 -46 -3 -62 -8 -62 -18 0 -5 -4 -3 -10 5 -8 12 -10 12 -16 -3 -3 -9 -10
-15 -14 -12 -5 3 -16 -2 -24 -11 -9 -8 -16 -13 -16 -9 0 3 -13 -8 -29 -24 -16
-16 -32 -27 -35 -24 -3 4 -6 -1 -6 -10 0 -10 -5 -17 -11 -17 -5 0 -7 -4 -4
-10 3 -5 1 -10 -6 -10 -7 0 -9 -3 -6 -6 3 -4 0 -16 -8 -26 -7 -11 -11 -27 -8
-36 4 -10 2 -13 -5 -8 -8 5 -10 2 -6 -8 4 -10 1 -16 -7 -16 -10 0 -10 -3 -1
-12 9 -9 8 -16 -6 -32 -12 -14 -13 -17 -2 -11 12 7 13 6 3 -6 -10 -12 -10 -18
0 -29 7 -8 8 -10 1 -7 -8 5 -11 -13 -10 -58 1 -52 -2 -65 -14 -65 -9 0 -11 -3
-4 -8 13 -9 26 -42 16 -42 -10 0 -8 -42 2 -58 4 -7 3 -12 -1 -12 -12 0 -4 -71
9 -87 7 -9 5 -15 -7 -19 -13 -5 -14 -9 -3 -15 10 -7 11 -9 0 -9 -8 0 -10 -5
-6 -12 4 -7 7 -28 6 -48 -2 -26 0 -31 8 -20 7 11 10 11 10 2 0 -7 -10 -17 -22
-22 -21 -8 -21 -9 -3 -10 17 0 17 -2 5 -10 -13 -9 -13 -10 0 -10 13 0 13 -1 0
-10 -8 -5 -10 -10 -4 -10 6 0 11 -7 11 -15 0 -8 -5 -15 -10 -15 -5 0 -2 -12 8
-26 9 -15 12 -24 7 -20 -17 10 -20 -18 -3 -32 9 -8 10 -10 2 -6 -9 4 -12 2 -9
-7 3 -8 1 -24 -3 -36 -6 -16 -5 -23 4 -23 8 0 7 -4 -3 -10 -12 -8 -12 -10 5
-10 15 0 17 -2 6 -9 -7 -5 -10 -14 -7 -20 4 -6 2 -11 -4 -11 -6 0 -8 -5 -5
-10 11 -19 12 -109 0 -104 -5 3 -1 -2 9 -10 18 -15 18 -16 2 -16 -11 0 -15 -4
-9 -12 10 -17 13 -38 5 -38 -4 0 -7 -11 -7 -24 0 -20 3 -22 14 -13 12 10 13 9
4 -8 -13 -24 -14 -73 -2 -81 15 -9 10 -24 -7 -24 -13 0 -14 -3 -5 -14 9 -11 9
-15 -1 -19 -10 -4 -10 -6 0 -6 6 -1 12 -6 12 -12 0 -5 -4 -8 -8 -5 -5 3 -9 -1
-9 -9 0 -8 7 -15 16 -15 14 0 14 -1 1 -10 -13 -8 -13 -13 -2 -31 10 -15 10
-19 1 -13 -9 5 -11 1 -7 -14 4 -12 3 -22 0 -22 -4 0 -7 -11 -7 -24 0 -20 3
-22 14 -13 12 10 12 9 2 -10 -6 -13 -8 -23 -4 -23 4 0 1 -5 -7 -10 -9 -6 -11
-10 -3 -10 7 0 10 -6 7 -14 -3 -8 -1 -17 5 -21 16 -10 13 -25 -5 -25 -14 0
-14 -3 -4 -15 10 -12 10 -15 -1 -15 -11 0 -11 -2 1 -10 13 -9 13 -10 0 -10
-11 0 -12 -2 -3 -8 10 -6 9 -14 -3 -37 l-15 -29 22 20 22 19 -12 -24 c-7 -12
-11 -31 -8 -42 3 -10 0 -20 -5 -21 -6 -2 -3 -11 6 -21 16 -16 16 -17 -1 -17
-10 0 -14 -4 -8 -8 11 -7 16 -72 6 -72 -3 0 -6 -11 -6 -24 0 -13 2 -23 5 -21
3 2 6 -14 5 -36 0 -21 -4 -39 -9 -39 -4 0 -1 -12 9 -26 9 -15 13 -24 7 -20
-13 8 -20 -82 -8 -94 7 -7 5 -10 -3 -10 -11 0 -11 -3 -1 -15 10 -12 10 -15 -1
-15 -11 0 -11 -2 1 -10 8 -5 10 -10 3 -10 -6 0 -11 -17 -11 -43 0 -66 -3 -78
-12 -72 -6 3 -7 -1 -4 -10 4 -8 1 -22 -6 -30 -7 -8 -9 -15 -4 -15 5 0 1 -7
-10 -15 -10 -7 -15 -18 -11 -24 3 -6 -1 -11 -9 -11 -9 0 -15 -4 -14 -8 2 -5
-13 -24 -31 -43 -19 -19 -31 -27 -27 -19 4 8 -1 6 -11 -6 -18 -20 -24 -23 -55
-32 -10 -2 -18 -8 -18 -13 0 -4 -9 -6 -20 -4 -11 2 -20 -1 -20 -7 0 -5 -7 -7
-16 -4 -9 4 -22 2 -28 -3 -6 -5 -27 -10 -46 -12 -19 -2 -41 -7 -47 -12 -9 -6
-13 -5 -13 4 0 9 -3 10 -8 4 -4 -5 -16 -12 -26 -13 -18 -3 -18 -2 -6 15 13 16
12 15 -8 -2 -19 -15 -25 -16 -31 -6 -7 11 -10 11 -14 0 -4 -12 -7 -11 -16 1
-6 8 -11 10 -11 4 0 -14 -30 -14 -30 0 0 6 -5 3 -11 -7 -10 -17 -12 -17 -29
-2 -13 12 -20 13 -25 5 -6 -9 -10 -9 -16 1 -7 11 -9 11 -9 -1 0 -13 -1 -13
-10 0 -9 13 -10 13 -10 0 0 -13 -1 -13 -10 0 -9 13 -10 13 -10 0 0 -13 -1 -13
-10 0 -9 13 -10 13 -10 0 0 -13 -1 -13 -10 0 -6 10 -10 11 -10 3 0 -7 -5 -13
-11 -13 -5 0 -8 4 -5 8 2 4 -6 8 -19 8 -13 0 -21 -4 -19 -8 3 -4 -2 -8 -10 -8
-9 0 -16 6 -16 13 0 7 -3 8 -8 2 -11 -16 -45 -19 -37 -3 3 7 -1 4 -9 -6 -15
-19 -22 -11 -16 19 1 5 -7 1 -18 -8 -13 -12 -22 -15 -27 -8 -4 7 -12 8 -24 1
-12 -6 -22 -5 -31 3 -10 9 -14 9 -17 -1 -4 -10 -8 -10 -21 0 -12 10 -14 10 -8
1 4 -7 3 -13 -3 -13 -5 0 -13 5 -16 10 -5 8 -11 8 -19 1 -9 -7 -17 -7 -26 2
-10 10 -11 9 -5 -2 6 -10 4 -12 -6 -5 -8 4 -27 9 -44 10 -16 1 -38 2 -48 3
-10 1 -16 5 -13 9 3 4 -8 7 -25 6 -16 -1 -29 2 -29 8 0 5 -4 6 -10 3 -5 -3
-22 1 -38 9 -16 8 -32 12 -36 9 -3 -4 -6 -1 -6 5 0 7 -7 12 -15 12 -8 0 -15 5
-15 11 0 5 -4 8 -9 5 -5 -3 -11 1 -15 9 -3 8 -11 15 -19 15 -12 0 -57 43 -57
55 0 2 -11 16 -25 31 -13 14 -22 30 -19 35 3 5 0 9 -5 9 -6 0 -11 9 -11 20 0
11 -4 20 -8 20 -4 0 -9 12 -10 28 -4 44 -8 61 -15 68 -4 4 -2 13 4 21 9 10 8
13 -2 13 -11 0 -11 2 1 10 8 5 10 10 4 10 -7 0 -11 24 -10 66 1 45 -3 68 -11
71 -7 3 -13 15 -13 27 0 12 -9 32 -20 44 -12 12 -18 22 -15 22 3 0 -6 11 -21
25 -15 14 -33 25 -40 25 -8 0 -14 5 -14 12 0 6 -3 9 -6 5 -3 -3 -26 0 -50 8
-32 9 -44 10 -44 2 0 -9 -2 -9 -8 0 -4 6 -23 11 -42 9 -19 -1 -47 1 -61 5 -15
4 -32 3 -40 -2 -8 -5 -16 -3 -21 4 -4 7 -8 8 -8 2 0 -5 -15 -9 -32 -9 -20 1
-32 6 -30 14 1 6 -2 9 -8 5 -6 -3 -8 -11 -5 -16 4 -5 1 -9 -4 -9 -6 0 -11 5
-11 11 0 8 -4 8 -13 0 -10 -8 -17 -7 -27 2 -10 9 -11 9 -6 0 4 -7 2 -13 -3
-13 -6 0 -11 5 -11 11 0 8 -6 7 -17 -2 -15 -12 -16 -12 -10 6 6 17 5 18 -5 5
-10 -12 -34 -15 -108 -13 -52 1 -103 4 -112 7 -10 2 -18 -1 -18 -7 0 -8 -4 -7
-9 2 -6 10 -10 10 -16 1 -5 -8 -11 -6 -21 7 -13 17 -14 17 -7 -2 6 -18 5 -19
-12 -5 -10 8 -16 10 -12 4 6 -11 -74 -11 -92 0 -5 4 -13 1 -16 -4 -5 -7 -12
-5 -21 7 -11 14 -13 14 -9 2 6 -17 -19 -20 -43 -5 -7 4 -12 2 -12 -4 0 -7 -7
-10 -15 -7 -20 8 -29 -11 -14 -29 10 -12 9 -13 -7 -7 -15 5 -17 4 -9 -8 6 -8
10 -34 9 -59 -1 -25 3 -51 10 -59 9 -12 8 -13 -3 -7 -11 7 -13 0 -9 -33 2 -22
0 -41 -5 -41 -4 0 -4 -7 1 -15 4 -9 5 -39 2 -66 -5 -37 -3 -55 7 -65 12 -12
12 -14 -1 -14 -8 0 -18 -4 -21 -10 -3 -5 0 -8 7 -5 9 4 13 -5 13 -30 0 -19 -2
-35 -5 -35 -3 0 -5 -11 -5 -24 0 -13 5 -22 11 -19 12 4 12 -26 0 -46 -5 -8 -3
-17 5 -22 11 -7 11 -9 1 -9 -11 0 -11 -3 0 -14 8 -7 13 -28 12 -45 -1 -17 1
-31 5 -31 4 0 8 -7 9 -15 1 -8 3 -22 4 -30 1 -8 5 -15 10 -15 5 0 6 -5 3 -10
-3 -6 -1 -10 5 -10 6 0 9 -4 5 -9 -3 -5 -1 -12 5 -16 5 -3 10 -14 10 -24 0 -9
8 -26 17 -37 10 -10 24 -31 32 -46 8 -16 18 -28 23 -28 4 0 8 -6 8 -14 0 -8 7
-16 15 -20 8 -3 14 -11 13 -18 -2 -7 3 -12 10 -11 6 2 12 -1 12 -7 0 -5 18
-27 39 -49 21 -22 36 -43 32 -47 -3 -4 -1 -4 6 0 6 3 19 -4 27 -16 9 -12 16
-18 16 -13 0 6 9 -3 20 -20 11 -17 20 -24 20 -15 1 12 3 11 11 -3 5 -9 27 -26
48 -36 20 -11 43 -27 50 -35 7 -9 17 -13 22 -10 5 3 9 0 9 -6 0 -6 4 -9 9 -6
5 4 11 3 13 -2 5 -11 112 -62 131 -62 10 0 17 -4 17 -10 0 -5 3 -9 8 -9 18 3
33 -2 28 -9 -3 -5 8 -8 24 -7 17 1 30 -1 30 -4 0 -4 10 -8 22 -8 13 -1 24 -6
26 -11 2 -6 12 -8 23 -5 10 3 25 1 32 -5 7 -6 25 -9 40 -8 15 2 27 0 27 -4 0
-7 15 -10 73 -11 20 -1 37 -6 37 -11 0 -7 5 -6 13 1 10 8 17 7 25 -1 9 -9 12
-9 12 2 0 13 2 13 10 0 6 -10 10 -11 10 -2 0 6 5 12 11 12 5 0 8 -4 5 -9 -7
-10 13 -9 31 2 6 4 19 0 27 -9 15 -14 16 -14 16 0 0 9 5 16 10 16 6 0 10 -5
10 -11 0 -5 5 -7 10 -4 6 4 8 12 4 18 -3 7 2 3 10 -7 12 -15 16 -16 16 -5 0
11 2 12 9 0 6 -9 11 -10 15 -2 4 6 12 9 17 5 18 -11 99 -12 92 -1 -4 6 0 8 10
4 9 -3 18 -1 21 6 2 7 5 2 5 -11 l1 -23 23 23 c12 13 19 19 15 14 -12 -16 -9
-24 8 -22 8 1 20 9 25 17 7 11 9 10 9 -6 0 -15 2 -17 9 -6 7 11 9 11 13 0 4
-12 8 -12 20 -1 13 10 17 10 21 0 4 -10 6 -10 6 0 1 6 8 12 16 12 8 0 15 -6
15 -12 0 -9 4 -8 10 2 8 12 10 12 10 1 0 -10 3 -11 14 -2 11 10 17 8 25 -6 7
-12 10 -13 11 -4 0 7 6 11 15 7 8 -3 15 -1 15 4 0 6 5 10 11 10 5 0 7 -6 3
-12 -5 -10 -4 -10 6 -1 11 10 16 9 27 -5 11 -15 12 -13 3 13 -9 28 -9 29 5 11
19 -26 49 -31 41 -8 -5 13 -2 12 9 -2 8 -11 15 -14 15 -8 0 16 27 15 33 0 4
-10 6 -10 6 0 1 16 28 16 34 0 4 -10 6 -10 6 -1 1 7 8 10 18 6 9 -4 14 -2 10
3 -3 5 3 10 13 10 14 0 16 -4 9 -13 -8 -9 -4 -11 17 -9 15 2 33 12 41 22 14
19 14 19 11 -1 -3 -17 3 -20 45 -20 27 0 51 3 54 8 3 5 9 3 14 -4 7 -11 9 -11
9 1 0 13 1 13 10 0 8 -12 10 -12 10 -1 0 11 3 11 15 1 13 -11 18 -10 31 8 12
18 18 20 34 10 10 -7 17 -15 15 -18 -2 -4 3 -7 11 -7 9 0 13 6 9 16 -4 12 -2
12 9 -2 13 -17 14 -17 21 0 6 17 7 17 20 0 10 -14 14 -15 18 -5 4 10 8 10 16
-2 9 -13 12 -13 23 -1 11 11 11 13 -1 6 -10 -6 -12 -4 -6 5 6 10 11 9 22 -5 9
-14 13 -15 13 -4 0 12 2 12 10 -1 7 -12 12 -12 29 4 19 17 21 17 27 2 3 -9 10
-16 16 -16 5 0 6 6 2 13 -5 7 0 6 11 -3 11 -9 16 -10 11 -2 -4 6 -3 12 3 12 5
0 12 -6 14 -12 4 -10 6 -10 6 0 1 6 6 12 12 12 5 0 8 -4 5 -8 -6 -10 54 -9 71
1 6 4 13 1 16 -5 3 -10 7 -10 19 0 13 10 17 10 21 0 4 -9 6 -10 6 -1 1 7 8 10
18 6 12 -5 14 -3 9 8 -4 8 0 5 8 -5 9 -11 16 -15 16 -10 0 6 7 11 15 11 8 0
15 -5 15 -11 0 -6 4 -5 9 2 4 8 12 14 16 14 4 0 12 -6 16 -14 7 -11 9 -11 9 1
0 9 8 12 25 9 14 -3 28 -2 30 2 2 4 16 5 30 3 13 -3 33 -2 42 2 10 4 36 9 58
10 22 1 40 3 40 5 0 1 12 3 27 4 15 1 30 5 34 9 4 4 17 7 29 7 13 0 42 7 66
16 24 9 49 17 54 19 6 1 26 8 45 16 19 7 38 12 43 11 4 -1 7 3 7 9 0 5 5 7 10
4 6 -3 10 -2 10 2 0 8 73 44 86 42 3 0 14 10 25 22 10 12 19 18 19 13 0 -5 6
-2 13 6 7 8 25 23 40 33 15 10 25 22 22 27 -3 6 1 7 9 4 15 -6 21 6 17 30 -1
5 5 6 14 3 10 -4 15 -1 15 10 0 9 3 13 7 10 3 -4 16 7 28 23 12 16 25 27 28
23 4 -3 7 -1 7 5 0 11 18 36 47 67 7 7 9 15 6 19 -4 3 -2 6 3 6 5 0 20 20 34
45 14 25 28 45 33 45 4 0 5 5 1 11 -3 6 3 23 14 39 16 21 18 30 9 40 -7 8 -8
11 -1 7 6 -4 16 5 23 19 9 20 9 24 -1 18 -7 -4 -6 1 3 12 9 10 14 24 12 31 -2
6 0 14 6 17 6 4 8 13 4 21 -3 8 -1 15 5 15 6 0 9 8 7 18 -1 9 3 23 9 31 9 12
8 13 -4 6 -12 -6 -13 -5 -2 6 6 7 12 26 12 42 0 15 5 38 11 49 8 15 8 19 0 14
-15 -10 -14 7 2 23 10 11 9 12 -3 6 -9 -5 -8 0 4 14 15 16 16 20 5 16 -10 -4
-16 0 -16 9 0 8 4 13 9 10 5 -3 7 8 6 25 -1 17 -7 31 -13 31 -5 0 -1 7 9 15
18 14 15 20 -8 16 -5 -1 -4 4 2 11 12 15 11 35 -2 57 -6 9 -5 12 1 8 6 -4 13
2 16 12 4 15 1 18 -12 13 -13 -4 -14 -3 -5 9 13 16 12 108 -1 128 -5 9 -4 12
2 8 6 -4 11 4 11 18 0 16 -5 22 -12 18 -7 -5 -7 -2 1 8 13 16 12 36 -1 58 -6
9 -5 12 2 7 6 -3 13 -2 17 4 3 5 -2 10 -12 10 -12 0 -14 3 -6 8 13 8 12 69 -1
91 -6 9 -5 12 0 8 6 -3 16 -2 24 4 12 7 9 9 -10 9 -17 0 -21 3 -12 8 8 5 10
16 6 27 -6 14 -4 16 7 11 8 -4 5 0 -5 8 -20 16 -20 16 0 17 18 0 18 1 -1 9
-11 5 -15 9 -10 9 11 1 14 125 3 136 -12 13 3 34 20 27 14 -5 15 -4 2 10 -8 9
-19 13 -25 10 -5 -2 -4 1 3 9 14 15 16 55 2 64 -5 3 -7 12 -4 20 4 8 11 12 17
8 6 -4 7 -1 3 6 -14 22 -16 92 -3 85 7 -3 3 1 -7 10 -18 14 -18 16 -2 22 16 6
16 8 -1 27 -10 11 -12 17 -5 13 7 -4 12 -2 12 6 0 8 -6 20 -12 27 -10 11 -10
13 0 7 7 -4 12 -2 12 6 0 8 -6 20 -12 27 -10 11 -10 13 0 7 6 -4 12 -2 12 4 0
6 5 8 12 4 7 -4 8 -3 4 5 -4 6 -12 9 -17 6 -12 -8 -11 2 3 28 11 21 10 21 -7
7 -15 -12 -17 -12 -10 -1 13 22 19 100 6 81 -15 -21 -14 -4 1 20 10 16 10 24
0 41 -8 12 -9 18 -3 15 5 -4 12 -2 16 4 3 5 2 10 -4 10 -6 0 -8 7 -5 15 4 8 1
21 -5 29 -9 11 -8 18 4 30 15 14 13 20 -6 18 -3 -1 -6 5 -6 13 0 8 4 12 9 9 8
-5 6 22 -3 51 -2 6 2 20 9 32 11 20 10 22 -5 16 -15 -6 -16 -4 -6 8 12 15 13
18 13 50 0 13 4 18 12 13 7 -4 8 -3 4 4 -4 6 -14 8 -24 5 -14 -5 -15 -4 -6 8
14 18 14 80 0 98 -7 9 -7 12 -1 9 6 -4 17 -3 25 3 12 7 9 9 -10 10 -14 0 -19
3 -12 6 6 2 12 9 12 14 0 6 -4 7 -10 4 -6 -3 -7 1 -4 9 3 9 11 13 18 9 7 -4 7
-1 -1 9 -7 8 -10 17 -7 21 3 3 1 14 -5 26 -7 13 -8 22 -1 26 5 3 10 11 10 16
0 6 -4 7 -10 4 -6 -3 -7 1 -4 9 3 9 11 13 17 9 6 -4 7 -1 1 8 -5 8 -7 23 -6
34 2 17 1 17 -7 5 -6 -8 -11 -10 -11 -4 0 6 3 14 7 18 4 3 8 28 9 53 2 32 0
43 -6 33 -6 -8 -10 -11 -10 -7 0 4 8 20 17 35 14 21 14 24 2 15 -12 -10 -15
-8 -16 8 -1 11 2 17 7 14 4 -3 11 2 14 11 3 8 2 12 -3 9 -5 -3 -12 -1 -16 5
-3 5 -1 10 4 10 6 0 11 5 11 11 0 5 -6 7 -12 3 -10 -6 -10 -5 -1 8 7 8 10 18
6 22 -11 10 -12 37 -2 30 5 -3 6 -10 3 -16 -4 -6 -2 -8 4 -4 6 4 8 17 3 34 -4
15 -7 37 -6 50 1 12 -4 27 -12 34 -10 8 -12 7 -8 -5 4 -8 1 -18 -5 -22 -6 -3
-10 -3 -9 2 1 4 1 15 0 23 -1 13 -2 13 -11 0 -5 -8 -10 -10 -10 -4 0 6 -7 11
-15 11 -8 0 -15 -5 -15 -11 0 -6 -4 -5 -9 2 -6 11 -10 10 -15 -5 -7 -17 -8
-17 -22 1 -8 11 -14 14 -14 7 0 -7 -5 -9 -10 -6 -6 4 -7 12 -3 18 3 7 -3 3
-15 -7 -12 -11 -22 -14 -22 -8 0 7 -5 12 -11 12 -5 0 -7 -5 -3 -12 4 -6 3 -8
-4 -4 -6 3 -39 7 -74 7 -35 1 -69 6 -77 13 -11 8 -13 8 -8 -1 5 -9 -6 -12 -43
-11 -27 0 -47 4 -44 9 3 5 1 9 -4 9 -6 0 -12 -6 -15 -14 -3 -8 -15 -12 -31 -9
-16 3 -23 10 -19 17 4 6 0 6 -9 -2 -17 -14 -78 -13 -78 1 0 4 -5 5 -10 2 -6
-4 -7 -12 -3 -18 3 -7 -4 -3 -17 8 -13 11 -20 15 -17 8 4 -6 3 -14 -3 -18 -5
-3 -10 2 -11 12 0 10 -3 13 -6 6 -2 -7 -11 -13 -19 -13 -9 0 -12 5 -9 10 3 6
4 10 1 10 -3 0 -8 -5 -11 -10z m-1851 -3448 c3 -5 -1 -9 -9 -9 -8 0 -12 4 -9
9 3 4 7 8 9 8 2 0 6 -4 9 -8z m711 -10 c-3 -3 -11 0 -18 7 -9 10 -8 11 6 5 10
-3 15 -9 12 -12z"/>
<path d="M3861 3704 c0 -11 3 -14 6 -6 3 7 2 16 -1 19 -3 4 -6 -2 -5 -13z"/>
<path d="M2730 3016 c0 -2 7 -7 16 -10 8 -3 12 -2 9 4 -6 10 -25 14 -25 6z"/>
<path d="M2266 262 c-3 -5 1 -15 8 -21 11 -10 14 -9 12 3 -3 21 -13 29 -20 18z"/>
</g>
</svg>
